# xmcd
#
# Track frame offsets: 
#        150
#        11279
#        24116
#        34651
#        63476
#        75213
#        94188
#        107800
#        127189
#        139662
#        156961
#
# Disc length: 2293 seconds
#
# Revision: 0
# Processed by: cddbd v1.5.2PL0 Copyright (c) Steve Scherf et al.
# Submitted via: ExactAudioCopy v0.95b3
#
DISCID=7e08f30b
DTITLE=Dave Brubeck Quartet  - Countdown Time In Outer Space (US Mono)
DTITLE=FLAC
DYEAR=1900
DGENRE=
TTITLE0=Countdown
TTITLE1=Eleven Four
TTITLE2=Why Phillis
TTITLE3=Someday My Prince Will Come
TTITLE4=Castilian Blues
TTITLE5=Castilian Drums
TTITLE6=Fast Life
TTITLE7=Waltz Limp
TTITLE8=Three's A Crowd
TTITLE9=Danse Duet
TTITLE10=Back To Earth
EXTD=
EXTT0=
EXTT1=
EXTT2=
EXTT3=
EXTT4=
EXTT5=
EXTT6=
EXTT7=
EXTT8=
EXTT9=
EXTT10=
PLAYORDER=
